<svg width="16" height="14" viewBox="0 0 16 14" fill="none" xmlns="http://www.w3.org/2000/svg">
<path d="M10.5455 13V11.6667C10.5455 10.9594 10.2773 10.2811 9.79991 9.78105C9.32254 9.28095 8.6751 9 8 9H3.54545C2.87036 9 2.22291 9.28095 1.74555 9.78105C1.26818 10.2811 1 10.9594 1 11.6667V13M13.0909 4.33333V8.33333M15 6.33333H11.1818M8.31818 3.66667C8.31818 5.13943 7.17854 6.33333 5.77273 6.33333C4.36691 6.33333 3.22727 5.13943 3.22727 3.66667C3.22727 2.19391 4.36691 1 5.77273 1C7.17854 1 8.31818 2.19391 8.31818 3.66667Z" stroke="#666666" stroke-width="1.5" stroke-linecap="round" stroke-linejoin="round"/>
</svg>
